<mxfile host="app.diagrams.net" modified="2023-07-20T13:51:12.881Z" agent="Mozilla/5.0 (Windows NT 10.0; Win64; x64; rv:109.0) Gecko/20100101 Firefox/115.0" version="21.6.1" etag="z6lUfo0Pef8J2Ih2vmEX" type="github">
  <diagram name="Page-1" id="jHzI-dSTX2YVJ-ReJYV5">
    <mxGraphModel>
      <root>
        <mxCell id="0" />
        <mxCell id="1" parent="0" />
      </root>
    </mxGraphModel>
  </diagram>
</mxfile>
